<svg xmlns="http://www.w3.org/2000/svg" width="21" height="21" viewBox="0 0 21 21" fill="none"><path d="M17.4545 19.0001C17.4408 19.0001 17.4272 19.0001 17.4108 18.9973L14.2036 18.4901C13.4182 18.8282 12.5864 19.0001 11.7273 19.0001C8.26919 19.0001 5.45459 16.1856 5.45459 12.7274C5.45459 9.26925 8.26908 6.45465 11.7273 6.45465C15.1854 6.45465 18 9.26915 18 12.7274C18 14.151 17.5146 15.5338 16.6282 16.6409L17.6946 18.5963C17.7436 18.6863 17.7382 18.7981 17.6783 18.8827C17.6263 18.9564 17.5418 19.0001 17.4544 19.0001L17.4545 19.0001ZM11.7274 7.00026C8.56924 7.00026 6.00027 9.5693 6.00027 12.7274C6.00027 15.8854 8.56931 18.4545 11.7274 18.4545C12.5347 18.4545 13.3201 18.288 14.0564 17.9581C14.1055 17.9363 14.1574 17.9281 14.2092 17.939L16.9501 18.3727L16.061 16.7418C16.0065 16.6436 16.0201 16.5208 16.0938 16.4336C16.9719 15.4 17.4575 14.0827 17.4575 12.7273C17.4546 9.56912 14.8855 7.00015 11.7275 7.00015L11.7274 7.00026Z" fill="white"></path><path d="M11.7275 12.9998C10.6747 12.9998 9.81836 12.1434 9.81836 11.0907C9.81836 10.0379 10.6747 9.18158 11.7275 9.18158C12.7802 9.18158 13.6365 10.0379 13.6365 11.0907C13.6365 11.2407 13.5138 11.3634 13.3638 11.3634C13.2139 11.3634 13.0911 11.2407 13.0911 11.0907C13.0911 10.338 12.4802 9.72697 11.7274 9.72697C10.9748 9.72697 10.3637 10.3379 10.3637 11.0907C10.3637 11.8433 10.9746 12.4544 11.7274 12.4544C11.8774 12.4544 12.0001 12.5771 12.0001 12.7271C12.0001 12.8771 11.8774 12.9998 11.7274 12.9998L11.7275 12.9998Z" fill="white"></path><path d="M11.7275 16.2727C10.6747 16.2727 9.81836 15.4163 9.81836 14.3636C9.81836 14.2136 9.94109 14.0909 10.0911 14.0909C10.241 14.0909 10.3638 14.2136 10.3638 14.3636C10.3638 15.1162 10.9747 15.7273 11.7275 15.7273C12.4801 15.7273 13.0912 15.1164 13.0912 14.3636C13.0912 13.6109 12.4803 12.9999 11.7275 12.9999C11.5775 12.9999 11.4548 12.8772 11.4548 12.7272C11.4548 12.5772 11.5775 12.4545 11.7275 12.4545C12.7802 12.4545 13.6366 13.3108 13.6366 14.3636C13.6366 15.4162 12.7802 16.2727 11.7275 16.2727L11.7275 16.2727Z" fill="white"></path><path d="M11.7273 9.72719C11.5773 9.72719 11.4546 9.60446 11.4546 9.45448V8.63636C11.4546 8.48637 11.5773 8.36365 11.7273 8.36365C11.8773 8.36365 12 8.48637 12 8.63636V9.45448C12 9.60446 11.8773 9.72719 11.7273 9.72719Z" fill="white"></path><path d="M11.7273 17.0908C11.5773 17.0908 11.4546 16.9681 11.4546 16.8181V15.9999C11.4546 15.85 11.5773 15.7272 11.7273 15.7272C11.8773 15.7272 12 15.85 12 15.9999V16.8181C12 16.9681 11.8773 17.0908 11.7273 17.0908Z" fill="white"></path><path d="M4.89012 10.2728H2.93745C2.22013 10.2728 1.63648 9.68916 1.63648 8.97199V5.43186L0.032835 2.49464C-0.0161993 2.40191 -0.0107221 2.29001 0.0520113 2.2055C0.112003 2.12098 0.215693 2.07729 0.319242 2.09373L1.63648 2.31453V2.30097C1.63648 1.58365 2.22013 1 2.93744 1H11.7899C12.5072 1 13.0908 1.58365 13.0908 2.30097V5.44542C13.0908 5.52445 13.0553 5.60088 12.9953 5.65266C12.9354 5.70443 12.8563 5.72909 12.7772 5.71539C12.428 5.66362 12.0763 5.63636 11.7271 5.63636C8.8117 5.63636 6.22901 7.39001 5.14376 10.1008C5.10007 10.2045 5.00186 10.2727 4.89009 10.2727L4.89012 10.2728ZM0.780202 2.72376L2.14923 5.2328C2.17114 5.27376 2.18196 5.31745 2.18196 5.36375V8.97189C2.18196 9.38909 2.52015 9.72729 2.93736 9.72729H4.70732C5.91568 6.90473 8.65103 5.09105 11.7272 5.09105C11.9972 5.09105 12.2727 5.10475 12.5454 5.13474V2.3011C12.5454 1.88391 12.2072 1.54571 11.79 1.54571H2.93757C2.52023 1.54571 2.18203 1.88389 2.18203 2.3011V2.63655C2.18203 2.71558 2.14656 2.79201 2.08656 2.84378C2.02657 2.89556 1.9448 2.91748 1.86563 2.90378L0.780202 2.72376Z" fill="white"></path></svg>