<svg xmlns="http://www.w3.org/2000/svg" width="37" height="37" viewBox="0 0 37 37" fill="none"><g clip-path="url(#clip0_76_208)"><path d="M18.2812 0C8.1977 0 0 8.1977 0 18.2812C0 28.3648 8.1977 36.5625 18.2812 36.5625C28.3648 36.5625 36.5625 28.3648 36.5625 18.2812C36.5625 8.1977 28.3648 0 18.2812 0ZM19.3205 34.4072V31.0974C19.3205 30.5202 18.8587 30.0582 18.2812 30.0582C17.7041 30.0582 17.242 30.5199 17.242 31.0974V34.4072C9.1598 33.8684 2.69401 27.4026 2.15519 19.3204H5.46506C6.04226 19.3204 6.50428 18.8586 6.50428 18.2812C6.50428 17.704 6.04252 17.242 5.46506 17.242H2.15519C2.694 9.15973 9.1598 2.69394 17.242 2.15513V5.46499C17.242 6.04219 17.7038 6.50421 18.2812 6.50421C18.8584 6.50421 19.3205 6.04245 19.3205 5.46499V2.15513C27.4027 2.69393 33.8685 9.15973 34.4073 17.242H31.0974C30.5202 17.242 30.0582 17.7037 30.0582 18.2812C30.0582 18.8584 30.52 19.3204 31.0974 19.3204H34.4073C33.8685 27.4026 27.4027 33.8684 19.3205 34.4072Z" fill="white"></path><path d="M25.0936 8.77503L14.933 13.2396C14.1634 13.5859 13.5475 14.1633 13.2395 14.9331L8.77499 25.0936C8.42867 25.8633 8.62116 26.7484 9.19836 27.3258C9.58334 27.7108 10.0835 27.903 10.6223 27.903C10.8918 27.903 11.1611 27.8646 11.4307 27.7492L21.5912 23.3233C22.3609 22.977 22.9767 22.3996 23.2847 21.6298L27.7105 11.4693C28.0569 10.6996 27.8644 9.81452 27.2872 9.23708C26.71 8.65962 25.8632 8.46714 25.0936 8.77505V8.77503ZM21.3987 20.7829C21.2832 21.0525 21.0524 21.2833 20.7828 21.3988L10.8147 25.7479L15.1638 15.7798C15.2793 15.5102 15.5101 15.2794 15.7797 15.1639L25.7478 10.8148L21.3987 20.7829Z" fill="white"></path><path d="M19.7783 16.7865C20.6048 17.6133 20.6046 18.9535 19.778 19.7801C18.9512 20.6064 17.611 20.6064 16.7843 19.7796C15.9578 18.953 15.958 17.6126 16.7846 16.7859C17.6115 15.9596 18.9516 15.9596 19.7783 16.7865Z" fill="white"></path></g><defs><clipPath id="clip0_76_208"><rect width="36.5625" height="36.5625" fill="white"></rect></clipPath></defs></svg>