<svg xmlns="http://www.w3.org/2000/svg" width="37" height="37" viewBox="0 0 37 37" fill="none"><g clip-path="url(#clip0_92_4312)"><path d="M23.6822 12.2402L18.8468 17.3902L16.3178 14.6926C16.0163 14.3723 15.5274 14.3723 15.2259 14.6926C14.9247 15.0132 14.9247 15.533 15.2259 15.8536L17.7628 18.5429L16.7634 19.5972C16.6181 19.7508 16.5361 19.9597 16.5361 20.1778C16.5361 20.3959 16.6181 20.6047 16.7634 20.7583C16.9079 20.9128 17.1043 21 17.3094 21C17.5145 21 17.7109 20.9128 17.8553 20.7583L18.8469 19.6956L19.8384 20.7583C19.9828 20.9128 20.1792 21 20.3843 21C20.5895 21 20.7859 20.9128 20.9303 20.7583C21.0756 20.6047 21.1576 20.3959 21.1576 20.1778C21.1576 19.9597 21.0756 19.7508 20.9303 19.5972L19.9309 18.5429L24.7741 13.4012C25.0753 13.0806 25.0753 12.5608 24.7741 12.2402C24.4726 11.9199 23.9837 11.9199 23.6822 12.2402H23.6822Z" fill="white"></path><path d="M35.7283 14.4348L34.4952 14.2189C34.1183 12.8158 33.5587 11.4686 32.8304 10.2115L33.5394 9.20179C33.7537 8.90105 33.8531 8.53348 33.819 8.16564C33.785 7.79807 33.6204 7.45458 33.3545 7.19807L29.7785 3.62236C29.5241 3.36467 29.1867 3.20452 28.8257 3.1708C28.4651 3.13708 28.1038 3.23131 27.8058 3.43752L26.7808 4.16182C25.5237 3.4336 24.1765 2.87396 22.7733 2.49703L22.5653 1.28717C22.5045 0.923823 22.3158 0.594482 22.0331 0.358143C21.7501 0.122128 21.3922 -0.00490737 21.024 0.000209821H15.9608C15.5957 -0.00581096 15.2404 0.117913 14.9583 0.349412C14.676 0.58091 14.4851 0.905127 14.4195 1.26395L14.2036 2.49701C12.8005 2.87391 11.4531 3.43352 10.1962 4.16179L9.18647 3.45285C8.88573 3.23851 8.51816 3.13916 8.15031 3.17318C7.78275 3.2072 7.43926 3.37187 7.18275 3.63768L3.62237 7.2137C3.36467 7.46808 3.20452 7.80554 3.17081 8.16647C3.13709 8.52711 3.23131 8.88836 3.43752 9.18636L4.16182 10.2114C3.43361 11.4685 2.87397 12.8157 2.49704 14.2189L1.28718 14.4269C0.923825 14.4877 0.594483 14.6764 0.358144 14.9591C0.122129 15.2421 -0.00490737 15.6 0.000209822 15.9682V21.0239C-0.00581098 21.3888 0.117913 21.744 0.349412 22.0264C0.580911 22.3084 0.905129 22.4996 1.26396 22.5652L2.49702 22.7811C2.87392 24.1839 3.43352 25.5314 4.1618 26.7885L3.45285 27.7982V27.7979C3.23852 28.0987 3.13917 28.4665 3.17319 28.8341C3.20721 29.2019 3.37187 29.5451 3.63769 29.8016L7.21371 33.3777C7.46809 33.6354 7.80556 33.7952 8.16648 33.8292C8.52713 33.8629 8.88838 33.7684 9.18638 33.5625L10.2114 32.8382C11.4685 33.5664 12.8157 34.1261 14.2189 34.5027L14.4269 35.7125C14.4877 36.0759 14.6765 36.4055 14.9591 36.6416C15.2421 36.8776 15.6 37.0046 15.9682 36.9998H21.0239C21.3888 37.0055 21.744 36.8818 22.0264 36.6503C22.3085 36.4191 22.4996 36.0949 22.5653 35.7358L22.7811 34.5027C24.184 34.1261 25.5315 33.5665 26.7886 32.8382L27.7983 33.5472H27.798C28.0987 33.7615 28.4666 33.8606 28.8341 33.8268C29.202 33.7928 29.5452 33.6279 29.8017 33.362L33.3774 29.7863H33.3777C33.6354 29.5316 33.7953 29.1945 33.8293 28.8336C33.863 28.4729 33.7685 28.1117 33.5626 27.8134L32.8383 26.7883V26.7886C33.5665 25.5315 34.1261 24.184 34.5027 22.7812L35.7126 22.5732V22.5728C36.076 22.5123 36.4056 22.3233 36.6416 22.0406C36.8776 21.7579 37.0047 21.4 36.9999 21.0315V15.9608C37.0017 15.5971 36.8752 15.2449 36.6425 14.9656C36.4098 14.6865 36.0859 14.4984 35.7283 14.4348L35.7283 14.4348ZM35.4507 15.9761V21.0393L33.7399 21.3397C33.4356 21.3939 33.1926 21.6242 33.1234 21.9255C32.7522 23.5129 32.1221 25.0284 31.2585 26.4107C31.089 26.6681 31.089 27.0013 31.2585 27.2584L32.2525 28.692L28.661 32.2834L27.2353 31.2816V31.2813C26.9782 31.1121 26.645 31.1121 26.3876 31.2813C25.0118 32.1402 23.5045 32.7675 21.9256 33.1387C21.6242 33.2083 21.394 33.4509 21.3398 33.7553L21.0315 35.4507H15.953L15.6526 33.7399C15.5984 33.4356 15.3681 33.1926 15.0667 33.1234C13.4793 32.7522 11.9639 32.1222 10.5816 31.2585C10.4611 31.1838 10.3224 31.1438 10.1809 31.1429C10.0201 31.1438 9.86387 31.195 9.73382 31.2892L8.30024 32.2832L4.7088 28.6917L5.71066 27.266L5.71096 27.2663C5.88015 27.0089 5.88015 26.6757 5.71096 26.4186C4.84905 25.0332 4.22143 23.5151 3.85351 21.9256C3.78397 21.6242 3.54133 21.3939 3.23698 21.3397L1.54153 21.0315V15.953L3.25232 15.6525C3.55667 15.5984 3.79961 15.3681 3.86885 15.0667C4.24003 13.4793 4.87009 11.9639 5.73377 10.5815C5.90326 10.3242 5.90326 9.99091 5.73377 9.73382L4.73977 8.30024L8.33121 4.70881L9.75694 5.71067V5.71097C10.014 5.88015 10.3473 5.88015 10.6047 5.71097C11.9804 4.85207 13.4877 4.22475 15.0666 3.85352C15.368 3.78398 15.5983 3.54134 15.6525 3.23699L15.9607 1.54154H21.0392L21.3397 3.25233C21.3939 3.55668 21.6242 3.79962 21.9255 3.86886C23.5129 4.24004 25.0283 4.8701 26.4107 5.73378C26.6681 5.90326 27.0013 5.90326 27.2584 5.73378L28.692 4.73978L32.2834 8.33121L31.2816 9.75694H31.2813C31.1121 10.014 31.1121 10.3473 31.2813 10.6047C32.1402 11.9804 32.7675 13.4877 33.1387 15.0666C33.2083 15.368 33.4509 15.5983 33.7552 15.6525L35.4507 15.9529V15.9761Z" fill="white"></path><path d="M18.5 5C14.9197 5 11.4858 6.42224 8.95408 8.95408C6.42224 11.4856 5 14.9195 5 18.5C5 22.0805 6.42224 25.5142 8.95408 28.0459C11.4856 30.5778 14.9195 32 18.5 32C22.0805 32 25.5142 30.5778 28.0459 28.0459C30.5778 25.5144 32 22.0805 32 18.5C32 14.9195 30.5778 11.4858 28.0459 8.95408C25.5144 6.42224 22.0805 5 18.5 5ZM18.8971 30.4113V28.4261H18.1029V30.4113C15.0807 30.3121 12.2092 29.0672 10.0706 26.929C7.93239 24.7905 6.68755 21.919 6.58829 18.8967H8.57355V18.1025H6.58829C6.68755 15.0803 7.93239 12.2088 10.0706 10.0702C12.2091 7.93199 15.0806 6.68715 18.1029 6.58789V8.57315H18.8971V6.58789C21.9193 6.68715 24.7908 7.93199 26.9294 10.0702C29.0676 12.2087 30.3125 15.0802 30.4117 18.1025H28.4265V18.8967H30.4117C30.3125 21.9189 29.0676 24.7904 26.9294 26.929C24.7909 29.0672 21.9194 30.3121 18.8971 30.4113Z" fill="white"></path></g><defs><clipPath id="clip0_92_4312"><rect width="36.5625" height="36.5625" fill="white"></rect></clipPath></defs></svg>