<svg xmlns="http://www.w3.org/2000/svg" width="16" height="16" viewBox="0 0 16 16" fill="none"><path d="M11.1378 5.15216L6.80169 9.48609L4.86169 7.54609C4.61169 7.29609 4.20361 7.29609 3.95361 7.54609C3.70361 7.79609 3.70361 8.20416 3.95361 8.45416L6.34758 10.8481C6.47355 10.9741 6.63762 11.0362 6.80154 11.0362C6.96561 11.0362 7.12953 10.9742 7.25551 10.8481L12.0455 6.05991C12.2955 5.80991 12.2955 5.40184 12.0455 5.15184C11.7934 4.89988 11.3874 4.89988 11.1374 5.15198L11.1378 5.15216Z" fill="#433F99"></path><path d="M8 0C3.58786 0 0 3.58786 0 8C0 12.4121 3.58786 16 8 16C12.4121 16 16 12.4121 16 8C16 3.58786 12.4121 0 8 0ZM8 14.7161C4.29786 14.7161 1.28393 11.7041 1.28393 8C1.28393 4.29593 4.29789 1.28393 8 1.28393C11.7021 1.28393 14.7161 4.29593 14.7161 8C14.7161 11.7041 11.7021 14.7161 8 14.7161Z" fill="#433F99"></path></svg>