<svg xmlns="http://www.w3.org/2000/svg" width="18" height="21" viewBox="0 0 18 21" fill="none"><path d="M14.9985 11.815L11.9434 12.5629C11.7296 12.2638 11.3451 12.0501 10.9179 12.0501L6.34568 11.9432C5.70468 11.9219 5.08516 12.1355 4.59365 12.5414L2.11523 14.5498L0.106857 16.7506C0.0427724 16.836 0 16.9428 0 17.0497C0 17.1566 0.0427725 17.2634 0.128169 17.3275L3.22625 20.169C3.31165 20.233 3.39719 20.2758 3.50405 20.2758H3.52536C3.63222 20.2758 3.73907 20.233 3.80315 20.1476L5.5978 18.182L8.8026 18.4384C9.84954 18.5238 10.9178 18.2247 11.7937 17.6051L16.2163 14.4857C16.7291 14.1225 16.9641 13.4816 16.7932 12.8833C16.5795 12.0928 15.7675 11.6228 14.9984 11.8151L14.9985 11.815ZM3.48261 19.2715L1.0042 17.0068L2.39287 15.4898L4.87128 17.7545L3.48261 19.2715ZM15.7463 13.802L11.3237 16.9212C10.6186 17.434 9.74261 17.6691 8.86675 17.605L5.59786 17.3487L2.96996 14.913L5.12782 13.161C5.4697 12.8832 5.89697 12.7337 6.32424 12.755L10.8964 12.8619C11.1314 12.8619 11.3452 13.0541 11.3665 13.2891C11.3878 13.5242 11.2383 13.7379 11.0033 13.8019L9.91367 14.1224C9.4864 14.2505 9.01632 14.2933 8.56761 14.2933H7.26433C7.0293 14.2933 6.85835 14.4856 6.85835 14.6993C6.85835 14.9343 7.0506 15.1053 7.26433 15.1053H8.56761C9.08042 15.1053 9.61455 15.0412 10.1272 14.8915L11.2383 14.5924C11.8152 14.4428 12.1997 13.9302 12.1997 13.3533L15.1907 12.6054C15.5326 12.52 15.8958 12.7336 15.9812 13.0754C16.0668 13.3532 15.9599 13.631 15.7464 13.802L15.7463 13.802Z" fill="#423E98"></path><path d="M6.92188 7.96921C7.00728 7.92644 7.07151 7.90513 7.1356 7.88381V9.80662C7.1356 10.3835 7.60563 10.8536 8.18254 10.8536H9.97718C10.3191 10.8536 10.5967 10.5758 10.5967 10.234C10.5967 9.95624 10.5326 9.67858 10.383 9.42212C10.3189 9.31526 10.2976 9.2084 10.2976 9.1017C10.2976 8.90944 10.3617 8.73851 10.5113 8.61033C10.6395 8.48216 10.8104 8.41808 11.0027 8.41808C11.1736 8.41808 11.3445 8.50348 11.4727 8.63179C11.6009 8.75996 11.665 8.95221 11.665 9.12316C11.665 9.23001 11.6222 9.33687 11.5796 9.42227C11.4514 9.65729 11.3658 9.93507 11.3658 10.2127C11.3658 10.5546 11.6436 10.8323 11.9854 10.8323H13.78C14.3569 10.8323 14.827 10.3622 14.827 9.78532V7.86252C14.9123 7.88383 14.9766 7.92661 15.062 7.96938C15.2542 8.05477 15.4465 8.11901 15.6602 8.11901C16.0447 8.14032 16.4507 7.99084 16.7498 7.71303C17.0489 7.43522 17.2198 7.05074 17.2412 6.66609C17.2412 6.26011 17.0915 5.87561 16.8139 5.5765C16.3651 5.10646 15.6175 4.9996 15.0406 5.2987C14.9765 5.34148 14.8909 5.36279 14.8269 5.3841V3.4613C14.8269 2.8844 14.3568 2.41436 13.7799 2.41436L12.2632 2.41421C12.2845 2.32881 12.3273 2.26458 12.3701 2.17918C12.4555 1.98693 12.5197 1.79469 12.5197 1.58096C12.541 1.19646 12.3915 0.790478 12.1137 0.491364C11.8359 0.19225 11.4514 0.0213272 11.0455 0C10.6395 0 10.255 0.14963 9.95586 0.427268C9.65676 0.705063 9.50712 1.08955 9.50712 1.49553C9.50712 1.73056 9.5712 1.96557 9.67806 2.1793C9.72083 2.24338 9.74214 2.32893 9.76345 2.39301H8.20382C7.62692 2.39301 7.15689 2.86305 7.15689 3.43995V5.36275C7.07149 5.34144 7.00726 5.29867 6.92186 5.2559C6.72961 5.1705 6.53736 5.10627 6.32363 5.10627C5.91765 5.08495 5.53315 5.23444 5.23404 5.51225C4.93493 5.79004 4.764 6.17453 4.74268 6.58051C4.74268 6.98649 4.89231 7.37099 5.16994 7.6701C5.61854 8.14014 6.36636 8.26833 6.92182 7.96921L6.92188 7.96921ZM5.76823 6.13179C5.8964 6.00362 6.08865 5.93954 6.2596 5.93954C6.34499 5.93954 6.43054 5.96085 6.51594 6.00362C6.81504 6.15325 7.11416 6.23865 7.41328 6.23865H7.54145C7.60553 6.23865 7.66962 6.21734 7.7337 6.19588C7.88333 6.11048 7.96873 5.96085 7.96873 5.7899V3.43964C7.96873 3.31147 8.07558 3.22592 8.18244 3.22592H10.1267C10.1908 3.22592 10.2549 3.22592 10.319 3.20461C10.4899 3.14053 10.5968 2.9909 10.5968 2.82011V2.64917C10.5968 2.37138 10.5114 2.09371 10.3831 1.81593C10.3403 1.73053 10.2977 1.62367 10.2977 1.49551C10.2977 1.30325 10.3617 1.13232 10.5114 1.00414C10.6395 0.875974 10.8318 0.81189 11.0027 0.81189C11.1737 0.81189 11.3446 0.897286 11.4728 1.04692C11.6009 1.19655 11.665 1.36733 11.665 1.53828C11.665 1.62368 11.6437 1.70922 11.6009 1.79462C11.4513 2.09372 11.3659 2.39285 11.3659 2.69196V2.82013C11.3659 3.07647 11.6009 3.26888 11.836 3.22611H13.7802C13.9084 3.22611 13.9939 3.33297 13.9939 3.43982V5.79008C13.9726 5.96102 14.0793 6.13196 14.2503 6.21735C14.3144 6.23866 14.3785 6.26012 14.4425 6.23866L14.6135 6.23851C14.8913 6.23851 15.1689 6.15312 15.4467 6.0248C15.7031 5.89663 16.0236 5.9394 16.2372 6.15297C16.3654 6.28114 16.4295 6.45207 16.4295 6.64433C16.4295 6.81527 16.3441 6.98621 16.1944 7.11437C16.0448 7.24253 15.874 7.30662 15.7031 7.30662C15.6177 7.30662 15.5108 7.28531 15.4467 7.24254C15.1476 7.09291 14.8485 7.00751 14.5494 7.00751H14.4425C14.2929 6.9862 14.1434 7.05028 14.058 7.17845C13.9939 7.26385 13.9726 7.37071 13.9939 7.45625V9.78503C13.9939 9.9132 13.8871 9.99874 13.7802 9.99874H12.2206C12.2419 9.93466 12.2634 9.89189 12.2847 9.8278C12.3915 9.63555 12.4769 9.40053 12.4769 9.16551C12.4983 8.75953 12.3488 8.37504 12.071 8.07592C11.7932 7.77682 11.4087 7.60589 11.0027 7.58456C10.5754 7.58456 10.2122 7.73419 9.91311 8.01183C9.614 8.28962 9.46436 8.67411 9.46436 9.08009C9.46436 9.33643 9.52844 9.5929 9.65661 9.80647C9.69939 9.87056 9.7207 9.93464 9.74201 9.99873H8.18238C8.05421 9.99873 7.96867 9.89187 7.96867 9.78501V7.43475C7.96867 7.34936 7.94735 7.28512 7.90458 7.19973C7.81918 7.0501 7.66955 6.9647 7.4986 6.98601H7.39175C7.11395 6.98601 6.83629 7.07141 6.5585 7.19973C6.30216 7.3279 5.9816 7.28512 5.76802 7.07156C5.63985 6.94339 5.57577 6.77245 5.57577 6.58019C5.55445 6.43086 5.64 6.25992 5.76817 6.13175L5.76823 6.13179Z" fill="#423E98"></path></svg>