<svg xmlns="http://www.w3.org/2000/svg" width="19" height="19" viewBox="0 0 19 19" fill="none"><path d="M5.69982 9.88H13.2998C13.51 9.88 13.6798 9.70968 13.6798 9.5V6.46C13.6798 5.41228 12.8275 4.56 11.7798 4.56H11.3581C11.8521 4.07703 12.1598 3.40406 12.1598 2.66C12.1598 1.19329 10.9665 0 9.49982 0C8.03311 0 6.83982 1.19329 6.83982 2.66C6.83982 3.40406 7.14755 4.07703 7.64155 4.56H7.21982C6.17211 4.56 5.31982 5.41228 5.31982 6.46V9.5C5.31982 9.70968 5.49015 9.88 5.69982 9.88H5.69982ZM7.59982 2.66C7.59982 1.61229 8.4521 0.76 9.49982 0.76C10.547 0.76 11.3998 1.61229 11.3998 2.66C11.3998 3.70771 10.5475 4.56 9.49982 4.56C8.45262 4.56 7.59982 3.70771 7.59982 2.66ZM6.07982 6.46C6.07982 5.83146 6.59127 5.32 7.21982 5.32H11.7798C12.4084 5.32 12.9198 5.83146 12.9198 6.46V9.12H6.07982V6.46Z" fill="white"></path><path d="M4.93999 15.2H4.93049C5.17139 14.8816 5.32 14.4894 5.32 14.06C5.32 13.0123 4.46771 12.16 3.42 12.16C2.37228 12.16 1.52 13.0123 1.52 14.06C1.52 14.4894 1.66861 14.8816 1.9095 15.2H1.9C0.852286 15.2 0 16.0523 0 17.1V18.62C0 18.8302 0.170322 19 0.38 19H6.46C6.66968 19 6.84 18.8302 6.84 18.62V17.1C6.84 16.0523 5.98771 15.2 4.94 15.2H4.93999ZM2.28 14.06C2.28 13.4315 2.79145 12.92 3.42 12.92C4.04854 12.92 4.55999 13.4315 4.55999 14.06C4.55999 14.6886 4.04854 15.2 3.42 15.2C2.79145 15.2 2.28 14.6886 2.28 14.06ZM6.07999 18.24H0.759995V17.1C0.759995 16.4715 1.27145 15.96 1.9 15.96H4.93999C5.56854 15.96 6.07999 16.4715 6.07999 17.1V18.24Z" fill="white"></path><path d="M17.0999 15.2H17.0904C17.3313 14.8816 17.4799 14.4894 17.4799 14.06C17.4799 13.0123 16.6276 12.16 15.5799 12.16C14.5322 12.16 13.6799 13.0123 13.6799 14.06C13.6799 14.4894 13.8285 14.8816 14.0694 15.2H14.0599C13.0122 15.2 12.1599 16.0523 12.1599 17.1V18.62C12.1599 18.8302 12.3297 19 12.5399 19H18.6199C18.8301 19 18.9999 18.8302 18.9999 18.62V17.1C18.9999 16.0523 18.1476 15.2 17.0999 15.2H17.0999ZM14.4399 14.06C14.4399 13.4315 14.9514 12.92 15.5799 12.92C16.2084 12.92 16.7199 13.4315 16.7199 14.06C16.7199 14.6886 16.2084 15.2 15.5799 15.2C14.9514 15.2 14.4399 14.6886 14.4399 14.06ZM18.2399 18.24H12.9199V17.1C12.9199 16.4715 13.4314 15.96 14.0599 15.96H17.0999C17.7284 15.96 18.2399 16.4715 18.2399 17.1V18.24Z" fill="white"></path><path d="M11.7801 13.68H9.88009V11.78C9.88009 11.5698 9.71027 11.4 9.50009 11.4C9.2899 11.4 9.12009 11.5698 9.12009 11.78V13.68H7.22009C7.01041 13.68 6.84009 13.8498 6.84009 14.06C6.84009 14.2702 7.01041 14.44 7.22009 14.44H11.7801C11.9903 14.44 12.1601 14.2702 12.1601 14.06C12.1601 13.8498 11.9903 13.68 11.7801 13.68Z" fill="white"></path></svg>