<svg xmlns="http://www.w3.org/2000/svg" width="35" height="37" viewBox="0 0 35 37" fill="none"><path d="M27.1801 16.8757C27.1801 14.1449 26.0126 11.5336 23.9771 9.71082C21.9432 7.88841 19.2053 7.01582 16.4709 7.31958C12.0479 7.80752 8.48715 11.3727 8.00466 15.7969C7.68475 18.7332 8.69023 21.6053 10.7651 23.6773C11.7627 24.6745 12.3748 25.9289 12.5385 27.2669H12.0202C11.6222 27.2669 11.2999 27.5892 11.2999 27.9872V30.5745C11.2999 32.0517 12.4498 33.2528 13.8998 33.3617V33.503C13.8998 34.8852 15.0244 36.0093 16.4061 36.0093H18.7177C20.0999 36.0093 21.2241 34.8847 21.2241 33.503L21.2253 33.3614C22.6752 33.2525 23.8255 32.0513 23.8255 30.5741V27.9868C23.8255 27.5888 23.5033 27.2665 23.1052 27.2665H22.5842C22.7396 25.9211 23.3226 24.6816 24.2437 23.791C26.1367 21.9623 27.18 19.5067 27.18 16.8758L27.1801 16.8757ZM19.7848 33.5033C19.7848 34.0915 19.3068 34.5696 18.7186 34.5696H16.407C15.8189 34.5696 15.3408 34.0915 15.3408 33.5033V33.383H19.7847L19.7848 33.5033ZM22.3847 30.5745C22.3847 31.3283 21.7709 31.9425 21.0167 31.9425H14.1082C13.3544 31.9425 12.7402 31.3287 12.7402 30.5745V28.7071H22.3843L22.3847 30.5745ZM21.1315 27.2669L18.2823 27.2665V20.3264L21.066 17.5427C21.3472 17.2615 21.3472 16.8059 21.066 16.5242C20.7847 16.243 20.3288 16.243 20.0475 16.5242L17.562 19.0097L15.0774 16.5242C14.7961 16.243 14.3405 16.243 14.0589 16.5242C13.7776 16.8055 13.7776 17.2615 14.0589 17.5427L16.8418 20.3264V27.2665L13.9922 27.2661C13.8242 25.5443 13.0546 23.9298 11.7833 22.6597C10.0192 20.8973 9.16372 18.4532 9.43627 15.9539C9.84651 12.1955 12.8713 9.16644 16.6281 8.75232C18.9912 8.49 21.2606 9.21226 23.0155 10.7842C24.7465 12.3344 25.7393 14.5552 25.7393 16.877C25.7393 19.1135 24.8526 21.2014 23.2428 22.7571C22.044 23.9145 21.2949 25.5294 21.1316 27.267L21.1315 27.2669Z" fill="white"></path><path d="M18.2824 4.10871V0.72028C18.2824 0.322272 17.9601 0 17.5621 0C17.1641 0 16.8418 0.322272 16.8418 0.72028V4.10871C16.8418 4.50672 17.1641 4.82899 17.5621 4.82899C17.9601 4.82899 18.2824 4.50672 18.2824 4.10871Z" fill="white"></path><path d="M8.53561 8.56796C8.71982 8.56796 8.90403 8.49775 9.04486 8.35693C9.32611 8.07568 9.32611 7.61968 9.04486 7.33843L6.64887 4.94214C6.36762 4.66089 5.91202 4.66089 5.63037 4.94214C5.34912 5.22339 5.34912 5.67939 5.63037 5.96064L8.02666 8.35693C8.16709 8.49775 8.3513 8.56796 8.53552 8.56796H8.53561Z" fill="white"></path><path d="M0.6875 16.8758C0.6875 17.2738 1.00977 17.5961 1.40778 17.5961H4.79692C5.19493 17.5961 5.5172 17.2738 5.5172 16.8758C5.5172 16.4778 5.19493 16.1555 4.79692 16.1555H1.40778C1.00977 16.1555 0.6875 16.4774 0.6875 16.8758Z" fill="white"></path><path d="M5.63032 28.8078C5.77114 28.9486 5.95536 29.0188 6.13957 29.0188C6.32378 29.0188 6.50799 28.9486 6.64882 28.8078L9.04481 26.4118C9.32606 26.1306 9.32606 25.6746 9.04481 25.3933C8.76356 25.1121 8.30796 25.1121 8.02631 25.3933L5.63002 27.7893C5.34917 28.0706 5.34917 28.5265 5.63042 28.8078H5.63032Z" fill="white"></path><path d="M29.4955 4.94287C29.2143 4.66162 28.7583 4.66162 28.477 4.94287L26.0811 7.33916C25.7998 7.62042 25.7998 8.07601 26.0811 8.35766C26.2219 8.49848 26.4061 8.56869 26.5903 8.56869C26.7745 8.56869 26.9587 8.49848 27.0996 8.35766L29.4955 5.96137C29.7768 5.68012 29.7768 5.22452 29.4955 4.94287Z" fill="white"></path><path d="M34.4374 16.8758C34.4374 16.4778 34.1151 16.1555 33.7171 16.1555H30.3287C29.9307 16.1555 29.6084 16.4778 29.6084 16.8758C29.6084 17.2738 29.9307 17.5961 30.3287 17.5961H33.7171C34.1151 17.5957 34.4374 17.2738 34.4374 16.8758Z" fill="white"></path><path d="M28.4766 28.8078C28.6174 28.9486 28.8016 29.0188 28.9858 29.0188C29.17 29.0188 29.3542 28.9486 29.4951 28.8078C29.7763 28.5265 29.7763 28.0706 29.4951 27.7893L27.0991 25.3933C26.8178 25.1121 26.3618 25.1121 26.0806 25.3933C25.7993 25.6746 25.7993 26.1302 26.0806 26.4118L28.4766 28.8078Z" fill="white"></path></svg>