<svg xmlns="http://www.w3.org/2000/svg" width="37" height="30" viewBox="0 0 37 30" fill="none"><path d="M36.1469 7.72229C35.1213 3.66417 31.8647 0.9375 28.0428 0.9375C23.668 0.9375 21.0468 2.71374 19.6183 4.20372C18.9807 4.86878 18.5185 5.53553 18.1933 6.09605C17.8492 5.53553 17.3652 4.86594 16.7092 4.1975C15.2496 2.71034 12.625 0.9375 8.40909 0.9375C4.5874 0.9375 1.32993 3.66924 0.302835 7.73466C-0.593858 11.2857 0.327697 16.0716 5.42182 19.1737C4.33694 20.7914 2.72032 22.1523 2.69804 22.1712C2.4935 22.3416 2.46553 22.6456 2.63589 22.8504C2.80597 23.0544 3.11024 23.082 3.31478 22.9125C3.32439 22.9046 3.35151 22.8817 3.3888 22.8498C3.89197 22.419 6.74601 19.8861 7.26473 17.4429C7.75858 15.1166 10.6889 10.1865 12.2789 9.43646C12.423 9.36866 12.5445 9.34634 12.6016 9.376C12.6637 9.40849 12.7066 9.44889 12.7281 9.55117C12.8242 10.0055 12.4227 10.892 11.893 11.7676C11.3163 12.5473 10.8985 13.1861 10.7855 13.361C10.6462 13.5768 10.7008 13.8642 10.9093 14.0142C11.1178 14.1642 11.4076 14.1238 11.5676 13.9232C11.7503 13.6941 12.2583 13.0381 12.7332 12.2532C13.8975 10.6937 15.3242 9.08781 16.1359 8.94684C16.2724 8.92368 16.3193 8.96041 16.3419 8.97764C16.3566 8.98894 16.3622 9.03951 16.3631 9.0494C16.4252 9.68479 15.4488 11.2206 14.3704 12.631C13.6941 13.4062 13.1929 14.0566 13.0615 14.2292C12.9044 14.4357 12.9389 14.7296 13.1397 14.8943C13.34 15.0587 13.6353 15.0347 13.8071 14.8403C14.0294 14.588 14.5713 13.9619 15.1648 13.1881C16.4246 11.7582 17.9175 10.3293 18.7175 10.2451C18.8546 10.2304 18.8961 10.2697 18.9147 10.2858C18.9303 10.2991 18.9619 10.3262 18.9656 10.4321C18.9972 11.3661 17.1467 13.6108 15.7106 15.1016C15.4931 15.3163 15.3256 15.4884 15.2256 15.5929C15.0428 15.7831 15.0467 16.0845 15.2346 16.2701C15.4219 16.4552 15.7234 16.4552 15.9118 16.2707C16.0166 16.1676 16.1853 15.9989 16.396 15.7814C17.7665 14.4352 19.8228 12.7154 20.7393 12.7154H20.7455C20.865 12.7163 20.8995 12.7538 20.9144 12.7699C20.9752 12.8352 21.0421 12.9372 21.0212 13.1465C20.8893 14.4817 17.8064 17.1694 15.894 18.5503C15.6999 18.6902 15.638 18.9515 15.7485 19.1634C15.859 19.3759 16.1087 19.4762 16.3345 19.3965C17.0004 19.1657 18.922 18.6848 19.7979 19.2326C20.0499 19.39 20.1861 19.6211 20.2271 19.9607C20.4101 21.4752 16.0132 22.0107 13.9 22.2683L13.5076 22.3163C11.4116 22.5754 9.14629 26.466 8.75334 27.1681C8.73894 27.1938 8.72114 27.2251 8.7121 27.2418C8.58383 27.4749 8.66859 27.7684 8.90195 27.897C8.97569 27.9374 9.05536 27.9569 9.13418 27.9569C9.30426 27.9569 9.46925 27.867 9.55712 27.7074C10.2264 26.4934 11.45 24.7183 12.5561 23.8247C16.4362 26.9883 17.5477 29.4034 17.5621 29.4355C17.676 29.6989 17.9348 29.8689 18.2215 29.8706H18.2266C18.5114 29.8706 18.7705 29.702 18.8869 29.442C18.9089 29.3934 21.1708 24.5313 30.3497 19.5754C36.0533 16.495 37.0839 11.4322 36.1465 7.72194L36.1469 7.72229ZM29.6622 18.3014C22.598 22.1159 19.4498 25.8738 18.2282 27.7073C17.5564 26.6933 16.2913 25.0911 14.0981 23.2149C17.0713 22.8525 21.4811 22.2934 21.1851 19.8442C21.1094 19.2193 20.8068 18.7248 20.3096 18.4141C19.7022 18.035 18.8803 17.9756 18.1195 18.0384C19.7039 16.7227 21.8372 14.6989 21.9813 13.2409C22.0246 12.8032 21.9003 12.4134 21.6211 12.113C21.4041 11.8791 21.1035 11.7536 20.7538 11.7505H20.7419C20.3148 11.7505 19.8026 11.9432 19.2632 12.2435C19.6754 11.5607 19.9469 10.91 19.93 10.3992C19.9181 10.0534 19.7851 9.76102 19.5443 9.55418C19.2957 9.34088 18.9739 9.24905 18.6166 9.28551C18.1798 9.33156 17.6687 9.59345 17.1364 9.97457C17.2785 9.59204 17.3514 9.24343 17.3234 8.95579C17.2847 8.56111 17.0873 8.33311 16.9285 8.21164C16.6623 8.00794 16.3309 7.93363 15.971 7.99607C15.2961 8.1136 14.4827 8.76764 13.7012 9.58297C13.697 9.50301 13.6874 9.42532 13.6716 9.35074C13.593 8.97922 13.3772 8.69189 13.0475 8.52015C12.8119 8.39782 12.4163 8.30543 11.8677 8.56337C9.82596 9.52567 6.8337 14.8263 6.3212 17.241C6.27487 17.4588 6.19887 17.6798 6.11044 17.9007C1.74183 15.2009 0.941693 11.1142 1.70596 8.08828C2.56764 4.67596 5.26177 2.38331 8.40938 2.38331C15.4527 2.38331 17.4566 7.75912 17.5376 7.98796C17.6416 8.28094 17.9097 8.47136 18.2326 8.46825C18.5445 8.46288 18.818 8.25664 18.9107 7.95886C18.9818 7.73115 20.7304 2.38299 28.0425 2.38299C31.1906 2.38299 33.8833 4.67057 34.7439 8.07523C35.5482 11.2587 34.6357 15.6166 29.6621 18.3006L29.6622 18.3014Z" fill="white"></path></svg>