<svg xmlns="http://www.w3.org/2000/svg" width="18" height="22" viewBox="0 0 18 22" fill="none"><path d="M3.54665 21.1443H15.3149C15.9987 21.1443 16.6546 20.8727 17.1381 20.389C17.6219 19.9055 17.8935 19.2496 17.8935 18.5656V9.6808C17.8935 9.00088 17.6251 8.34859 17.1465 7.86571C16.668 7.38266 16.0182 7.10826 15.3383 7.10206H13.3691V3.51534C13.3668 3.43243 13.3425 3.35149 13.2988 3.28101L11.8922 0.936745C11.8066 0.798731 11.6559 0.714844 11.4937 0.714844C11.3314 0.714844 11.1807 0.798731 11.0951 0.936745L9.68851 3.28101C9.64484 3.35149 9.62048 3.43243 9.61819 3.51534V7.05526H5.72667V4.33587C5.72667 4.21143 5.67729 4.09223 5.58948 4.00425C5.5015 3.91644 5.3823 3.86705 5.25785 3.86705H3.54658C2.73961 3.8664 1.96383 4.17873 1.38237 4.73828C0.800862 5.29802 0.459103 6.0612 0.428711 6.86767V17.8623V18.0264V18.0263C0.428711 18.8532 0.75723 19.6463 1.34197 20.2309C1.92657 20.8157 2.71964 21.1442 3.54658 21.1442L3.54665 21.1443ZM10.556 13.1738H12.4314V13.8772L12.4313 13.877C12.4313 14.2121 12.2526 14.5216 11.9625 14.689C11.6724 14.8566 11.3149 14.8566 11.0249 14.689C10.7348 14.5216 10.556 14.212 10.556 13.877L10.556 13.1738ZM11.4936 2.08546L12.4312 3.65612V12.2361H10.556V3.63268L11.4936 2.08546ZM9.61817 7.99301V13.8771C9.61817 14.5472 9.97563 15.1663 10.556 15.5014C11.1361 15.8363 11.8511 15.8363 12.4312 15.5014C13.0116 15.1663 13.369 14.5472 13.369 13.8771V8.01645H15.3148C15.7458 8.02267 16.1572 8.19829 16.4599 8.5054C16.7626 8.81249 16.9323 9.22639 16.9323 9.65756V18.5658C16.9323 19.001 16.7593 19.4184 16.4516 19.7261C16.1438 20.0339 15.7265 20.2069 15.2912 20.2069H3.54644C2.76333 20.2069 2.03975 19.7891 1.64826 19.1108C1.25662 18.4326 1.25662 17.5972 1.64826 16.9189C2.03973 16.2408 2.76333 15.823 3.54644 15.823H5.25771C5.38215 15.823 5.50136 15.7736 5.58933 15.6856C5.67715 15.5978 5.72653 15.4784 5.72653 15.3542V7.94628L9.61817 7.99301ZM3.54652 4.80481H4.78898V14.8851H3.54652C2.73118 14.8856 1.94874 15.2053 1.36627 15.776V7.00846C1.36006 6.42616 1.58703 5.86559 1.9965 5.4517C2.40613 5.03766 2.96422 4.80481 3.54652 4.80481Z" fill="#433F99"></path></svg>