<svg xmlns="http://www.w3.org/2000/svg" width="20" height="20" viewBox="0 0 20 20" fill="none"><path d="M17.2623 0.00010464C17.1471 0.00470202 17.0379 0.0528966 16.9568 0.135015L13.7751 3.31674C13.6897 3.40124 13.6412 3.51617 13.6402 3.63634V3.66472C12.2626 2.78392 10.6222 2.2728 8.86751 2.2728C3.97792 2.2728 0.00390625 6.2464 0.00390625 11.1364C0.00390625 16.026 3.97767 20 8.86751 20C13.7573 20 17.7311 16.0262 17.7311 11.1364C17.7311 9.38146 17.22 7.74222 16.3392 6.36369H16.3676C16.4877 6.36274 16.6027 6.31423 16.6872 6.22878L19.8689 3.04706C19.9973 2.91706 20.0355 2.72286 19.9658 2.55404C19.8962 2.38504 19.7321 2.27439 19.5493 2.27296H17.7311V0.454746C17.7312 0.331727 17.6813 0.213777 17.593 0.128169C17.5047 0.0425605 17.3853 -0.00372978 17.2624 0.000235305L17.2623 0.00010464ZM16.8219 1.54831V2.53548L14.5492 4.8082V3.82103L16.8219 1.54831ZM8.8674 3.18183C10.6609 3.18183 12.3102 3.77347 13.6401 4.77269V5.71737L12.3829 6.97439C11.4329 6.17078 10.2064 5.68186 8.86732 5.68186C5.86027 5.68186 3.4128 8.12929 3.4128 11.1364C3.4128 14.1435 5.86023 16.5909 8.86732 16.5909C11.8744 16.5909 14.3218 14.1435 14.3218 11.1364C14.3218 9.79536 13.835 8.56436 13.0293 7.61363L14.2794 6.36359H15.231C16.2298 7.69354 16.8219 9.34321 16.8219 11.1363C16.8219 15.5348 13.2658 19.0908 8.86736 19.0908C4.46888 19.0908 0.912851 15.5348 0.912851 11.1363C0.912851 6.73782 4.46888 3.18179 8.86736 3.18179L8.8674 3.18183ZM17.4611 3.18183H18.4554L16.1827 5.45455H15.1884L17.4611 3.18183ZM8.8674 6.59091C9.96078 6.59091 10.9605 6.97313 11.7438 7.61359L9.70539 9.65201L9.2864 8.67893C9.20507 8.49012 9.00691 8.37946 8.80353 8.4091C8.64452 8.43209 8.50945 8.53752 8.44841 8.68606L6.85755 12.5496C6.787 12.7188 6.82489 12.9138 6.95378 13.0441C7.08251 13.1744 7.27703 13.2147 7.44696 13.1462L11.3105 11.5554C11.4799 11.4859 11.591 11.3217 11.5926 11.1387C11.594 10.9558 11.4857 10.7896 11.3177 10.7173L10.3446 10.2983L12.383 8.25991C13.0251 9.04367 13.4128 10.0414 13.4128 11.1363C13.4128 13.6521 11.3831 15.6818 8.8674 15.6818C6.35166 15.6818 4.32196 13.6521 4.32196 11.1363C4.32196 8.62058 6.35166 6.59088 8.8674 6.59088L8.8674 6.59091ZM8.87454 10.0355L9.13025 10.632C9.17781 10.7383 9.26421 10.8221 9.3717 10.8665L9.96824 11.1221L8.11452 11.8892L8.87454 10.0355Z" fill="#423E98"></path></svg>