<svg xmlns="http://www.w3.org/2000/svg" width="37" height="27" viewBox="0 0 37 27" fill="none"><path d="M24.0096 0.0626232C23.5491 0.0626232 23.1224 0.233458 22.7294 0.572711L12.4398 6.4214L10.8373 7.34663H5.68774C2.68921 7.34663 0.25 9.78615 0.25 12.7844V14.0422C0.25 17.0408 2.68952 19.48 5.68774 19.48H6.01461L7.00633 24.0892C7.1442 24.7312 7.52549 25.2817 8.07971 25.6401C8.48458 25.9016 8.94479 26.0365 9.41403 26.0365C9.58698 26.0365 9.76115 26.018 9.9347 25.9808C10.5766 25.8429 11.1272 25.4617 11.4855 24.9074C11.8432 24.3532 11.9645 23.6946 11.8266 23.0527L11.0891 19.6251L12.4383 20.404L22.9244 26.4059C23.2628 26.6442 23.625 26.7636 24.0102 26.7636C25.3503 26.7636 26.4095 25.3171 27.1581 22.4646C27.7955 20.0357 28.1466 16.821 28.1466 13.4128C28.1466 10.0049 27.7953 6.7895 27.1581 4.36098C26.4086 1.50873 25.3497 0.0622559 24.0096 0.0622559L24.0096 0.0626232ZM1.96446 14.0429V12.785C1.96446 10.7322 3.63471 9.06196 5.68751 9.06196H10.2681V17.7662H5.68751C3.63471 17.7656 1.96446 16.0953 1.96446 14.0426V14.0429ZM9.5732 24.3053C9.37908 24.347 9.17861 24.3098 9.00928 24.2004C8.83996 24.0912 8.72355 23.924 8.68182 23.7299L7.76804 19.481H9.30284L10.1489 23.4145C10.236 23.8184 9.97805 24.2182 9.57318 24.3052L9.5732 24.3053ZM13.2917 18.918L11.9828 18.1621V8.66521L13.2902 7.9105L21.1244 3.45759C21.0328 3.74121 20.9454 4.04267 20.8617 4.36169C20.2237 6.79029 19.8724 10.005 19.8724 13.4135C19.8724 16.822 20.2237 20.0368 20.8608 22.4653C20.9485 22.7985 21.0398 23.113 21.136 23.4075L13.2917 18.918ZM22.4341 13.4138C22.4341 14.2402 22.1084 14.983 21.6301 15.4054C21.6022 14.7535 21.588 14.0883 21.588 13.4138C21.588 12.7393 21.6022 12.074 21.6301 11.4221C22.1084 11.8445 22.4341 12.5875 22.4341 13.4138ZM25.4989 22.0298C24.8473 24.5122 24.1476 25.0495 24.0097 25.0495C23.8719 25.0495 23.1719 24.5122 22.5206 22.0298C22.1671 20.6831 21.9071 19.07 21.7526 17.3053C22.3047 17.1028 22.8055 16.7348 23.2146 16.2204C23.8175 15.4618 24.1495 14.4652 24.1495 13.4135C24.1495 12.3616 23.8172 11.3647 23.2146 10.6067C22.8058 10.0926 22.3047 9.72439 21.7526 9.52175C21.9071 7.75744 22.1671 6.14431 22.5206 4.79729C23.1722 2.31489 23.8719 1.77816 24.0097 1.77816C24.1476 1.77816 24.8476 2.31547 25.4989 4.79729C26.1 7.08804 26.4314 10.148 26.4314 13.4133C26.4314 16.6787 26.1 19.7388 25.4989 22.0293V22.0298ZM30.7134 13.4138C30.7134 12.94 31.0974 12.5566 31.5706 12.5566H36.0986C36.5724 12.5566 36.9557 12.9406 36.9557 13.4138C36.9557 13.887 36.5717 14.271 36.0986 14.271H31.5706C31.0971 14.271 30.7134 13.8876 30.7134 13.4138ZM30.8725 6.49627C30.7231 6.04695 30.9662 5.56167 31.4155 5.41228L35.7128 3.98392C36.1621 3.83455 36.6474 4.07765 36.7968 4.52696C36.9461 4.97628 36.703 5.46156 36.2537 5.61095L31.9565 7.03932C31.8667 7.06895 31.7757 7.08346 31.6859 7.08346C31.327 7.08346 30.9919 6.85608 30.8725 6.49627L30.8725 6.49627ZM36.797 22.3002C36.6776 22.6597 36.3429 22.8877 35.9837 22.8877C35.8939 22.8877 35.8028 22.8735 35.713 22.8435L31.4158 21.4152C30.9665 21.2658 30.7231 20.7805 30.8727 20.3312C31.0221 19.8819 31.5074 19.6384 31.9567 19.7881L36.254 21.2165C36.7033 21.3656 36.9461 21.8512 36.797 22.3002L36.797 22.3002Z" fill="white"></path></svg>