<svg xmlns="http://www.w3.org/2000/svg" width="16" height="20" viewBox="0 0 16 20" fill="none"><path d="M10.7425 17.3652H1.91745C1.39015 17.3652 0.910349 17.1495 0.56331 16.8018C0.216244 16.4548 0 15.9756 0 15.4477V1.91685C0 1.38899 0.215649 0.909747 0.56331 0.562707C0.910376 0.215641 1.38959 0 1.91745 0H10.7451C11.273 0 11.7522 0.215649 12.0992 0.562707C12.4463 0.909766 12.6619 1.38899 12.6619 1.91685V15.1617C12.7499 15.218 12.8326 15.2843 12.9092 15.3609L15.0283 17.48C15.0365 17.4882 15.0442 17.4965 15.0517 17.5059C15.3235 17.7911 15.4595 18.1583 15.4595 18.5244C15.4595 18.9025 15.316 19.2812 15.0283 19.5689C14.7406 19.8565 14.362 20 13.9839 20C13.6058 20 13.2272 19.8565 12.9395 19.5689L10.8203 17.4497C10.7931 17.4225 10.7665 17.3942 10.742 17.3651L10.7425 17.3652ZM6.3309 9.77973C6.11158 9.77973 5.93328 9.60201 5.93328 9.38212C5.93328 9.16279 6.111 8.9845 6.3309 8.9845C6.85187 8.9845 7.32343 9.19559 7.66491 9.53708C8.00624 9.87841 8.21749 10.3501 8.21749 10.8711C8.21749 11.0904 8.03977 11.2687 7.81987 11.2687C7.60055 11.2687 7.42226 11.091 7.42226 10.8711C7.42226 10.5694 7.30025 10.2965 7.10239 10.0992C6.90453 9.90133 6.63199 9.77932 6.33048 9.77932L6.3309 9.77973ZM12.122 15.7752L12.1138 15.772C12.0341 15.741 11.9501 15.7258 11.8654 15.7258V15.7245C11.6978 15.7245 11.5304 15.7852 11.3994 15.9072C11.3944 15.913 11.3892 15.9185 11.3835 15.9243L11.3822 15.9256C11.2514 16.0577 11.1855 16.2322 11.1855 16.4062C11.1855 16.5812 11.2519 16.7565 11.384 16.8886L13.5031 19.0077C13.6352 19.1399 13.8103 19.2062 13.9855 19.2062C14.1606 19.2062 14.3351 19.1397 14.4672 19.0077C14.5994 18.8756 14.6657 18.7011 14.6657 18.526C14.6657 18.3572 14.605 18.1891 14.4843 18.06L14.4672 18.0435L12.3481 15.9244C12.2817 15.858 12.2052 15.8087 12.1231 15.7758L12.122 15.7752ZM11.8666 14.9306V1.91752C11.8666 1.60956 11.7401 1.32893 11.5365 1.12534C11.333 0.921744 11.0529 0.795328 10.7444 0.795328H1.91671C1.60875 0.795328 1.32811 0.921748 1.12453 1.12534C0.920931 1.32893 0.794515 1.60955 0.794515 1.91752V15.4484C0.794515 15.7563 0.920935 16.037 1.12453 16.2406C1.32812 16.4442 1.60817 16.5706 1.91671 16.5706H10.3985C10.3928 16.5162 10.3897 16.4612 10.3897 16.4062C10.3897 16.1559 10.4523 15.9062 10.5782 15.6817L8.83637 13.9399C8.15355 14.4982 7.28113 14.8332 6.33093 14.8332C5.23728 14.8332 4.24707 14.39 3.53015 13.6731C2.81383 12.9562 2.37004 11.9661 2.37004 10.8723C2.37004 9.77865 2.81383 8.78845 3.53015 8.07153C4.24707 7.35461 5.23709 6.91142 6.33093 6.91142C7.42458 6.91142 8.41479 7.35461 9.13171 8.07153C9.84863 8.78845 10.2918 9.77846 10.2918 10.8723C10.2918 11.8231 9.95681 12.695 9.39852 13.3778L11.1415 15.1201C11.3652 14.9949 11.6149 14.9324 11.8647 14.9324V14.9311H11.866L11.8666 14.9306ZM8.56953 8.63291C7.99666 8.06004 7.20523 7.70547 6.33089 7.70547C5.45656 7.70547 4.66494 8.06018 4.09226 8.63291C3.51939 9.20577 3.16482 9.99721 3.16482 10.8715C3.16482 11.7459 3.5188 12.5375 4.09226 13.1102C4.66513 13.683 5.45656 14.0376 6.33089 14.0376C7.20523 14.0376 7.99685 13.6829 8.56953 13.1102C9.1424 12.5373 9.49696 11.7459 9.49696 10.8715C9.49696 9.99721 9.14226 9.20559 8.56953 8.63291ZM2.44158 5.15446C2.22226 5.15446 2.04396 4.97614 2.04396 4.75684C2.04396 4.53753 2.22169 4.35922 2.44158 4.35922H7.59675C7.81607 4.35922 7.99437 4.53694 7.99437 4.75684C7.99437 4.97616 7.81664 5.15446 7.59675 5.15446H2.44158ZM2.44158 3.03782C2.22226 3.03782 2.04396 2.8601 2.04396 2.6402C2.04396 2.42088 2.22169 2.24259 2.44158 2.24259H10.2197C10.439 2.24259 10.6173 2.42031 10.6173 2.6402C10.6173 2.85953 10.4396 3.03782 10.2197 3.03782H2.44158Z" fill="#423E98"></path></svg>